<svg id="visual" viewBox="0 0 900 600" width="900" height="600" xmlns="http://www.w3.org/2000/svg" xmlns:xlink="http://www.w3.org/1999/xlink" version="1.1"><rect x="0" y="0" width="900" height="600" fill="#FF0066"></rect><g transform="translate(286.7475102686659 310.4028698001844)"><path d="M102.8 -237.5C104.4 -121.1 57.1 -61.4 161.8 43.7C266.4 148.8 522.9 299.4 555.2 392.9C587.4 486.4 395.5 522.7 256.7 472C118 421.3 32.5 283.5 -57.1 222.5C-146.8 161.4 -240.5 177.2 -231.7 152.9C-222.9 128.7 -111.4 64.3 -71.1 13.8C-30.9 -36.8 -61.7 -73.5 -61.7 -190.2C-61.7 -306.9 -30.9 -503.4 9.9 -515.2C50.6 -526.9 101.1 -353.9 102.8 -237.5" fill="#BB004B"></path></g></svg>