<svg id="visual" viewBox="0 0 960 540" width="960" height="540" xmlns="http://www.w3.org/2000/svg" xmlns:xlink="http://www.w3.org/1999/xlink" version="1.1"><rect x="0" y="0" width="960" height="540" fill="#001220"></rect><defs><linearGradient id="grad1_0" x1="43.8%" y1="0%" x2="100%" y2="100%"><stop offset="14.444444444444446%" stop-color="#fbae3c" stop-opacity="1"></stop><stop offset="85.55555555555554%" stop-color="#fbae3c" stop-opacity="1"></stop></linearGradient></defs><defs><linearGradient id="grad1_1" x1="43.8%" y1="0%" x2="100%" y2="100%"><stop offset="14.444444444444446%" stop-color="#fbae3c" stop-opacity="1"></stop><stop offset="85.55555555555554%" stop-color="#e1685e" stop-opacity="1"></stop></linearGradient></defs><defs><linearGradient id="grad1_2" x1="43.8%" y1="0%" x2="100%" y2="100%"><stop offset="14.444444444444446%" stop-color="#96446e" stop-opacity="1"></stop><stop offset="85.55555555555554%" stop-color="#e1685e" stop-opacity="1"></stop></linearGradient></defs><defs><linearGradient id="grad1_3" x1="43.8%" y1="0%" x2="100%" y2="100%"><stop offset="14.444444444444446%" stop-color="#96446e" stop-opacity="1"></stop><stop offset="85.55555555555554%" stop-color="#3d3056" stop-opacity="1"></stop></linearGradient></defs><defs><linearGradient id="grad1_4" x1="43.8%" y1="0%" x2="100%" y2="100%"><stop offset="14.444444444444446%" stop-color="#001220" stop-opacity="1"></stop><stop offset="85.55555555555554%" stop-color="#3d3056" stop-opacity="1"></stop></linearGradient></defs><defs><linearGradient id="grad2_0" x1="0%" y1="0%" x2="56.3%" y2="100%"><stop offset="14.444444444444446%" stop-color="#fbae3c" stop-opacity="1"></stop><stop offset="85.55555555555554%" stop-color="#fbae3c" stop-opacity="1"></stop></linearGradient></defs><defs><linearGradient id="grad2_1" x1="0%" y1="0%" x2="56.3%" y2="100%"><stop offset="14.444444444444446%" stop-color="#e1685e" stop-opacity="1"></stop><stop offset="85.55555555555554%" stop-color="#fbae3c" stop-opacity="1"></stop></linearGradient></defs><defs><linearGradient id="grad2_2" x1="0%" y1="0%" x2="56.3%" y2="100%"><stop offset="14.444444444444446%" stop-color="#e1685e" stop-opacity="1"></stop><stop offset="85.55555555555554%" stop-color="#96446e" stop-opacity="1"></stop></linearGradient></defs><defs><linearGradient id="grad2_3" x1="0%" y1="0%" x2="56.3%" y2="100%"><stop offset="14.444444444444446%" stop-color="#3d3056" stop-opacity="1"></stop><stop offset="85.55555555555554%" stop-color="#96446e" stop-opacity="1"></stop></linearGradient></defs><defs><linearGradient id="grad2_4" x1="0%" y1="0%" x2="56.3%" y2="100%"><stop offset="14.444444444444446%" stop-color="#3d3056" stop-opacity="1"></stop><stop offset="85.55555555555554%" stop-color="#001220" stop-opacity="1"></stop></linearGradient></defs><g transform="translate(960, 0)"><path d="M0 432C-23.6 389.4 -47.2 346.7 -77.2 338.3C-107.2 329.9 -143.7 355.6 -170.1 353.2C-196.5 350.7 -212.9 320 -243.2 304.9C-273.4 289.8 -317.6 290.2 -337.8 269.3C-357.9 248.4 -354.1 206.2 -360.4 173.6C-366.7 140.9 -383.2 117.9 -396.8 90.6C-410.4 63.2 -421.2 31.6 -432 0L0 0Z" fill="#18223c"></path><path d="M0 345.6C-18.9 311.5 -37.8 277.4 -61.8 270.6C-85.8 263.9 -114.9 284.5 -136.1 282.5C-157.2 280.6 -170.3 256 -194.5 243.9C-218.7 231.8 -254.1 232.2 -270.2 215.5C-286.3 198.8 -283.3 165 -288.3 138.8C-293.4 112.7 -306.5 94.3 -317.4 72.5C-328.3 50.6 -337 25.3 -345.6 0L0 0Z" fill="#683a67"></path><path d="M0 259.2C-14.2 233.6 -28.3 208 -46.3 203C-64.3 197.9 -86.2 213.4 -102 211.9C-117.9 210.4 -127.7 192 -145.9 182.9C-164.1 173.9 -190.6 174.1 -202.7 161.6C-214.7 149.1 -212.4 123.7 -216.2 104.1C-220 84.5 -229.9 70.7 -238.1 54.3C-246.3 37.9 -252.7 19 -259.2 0L0 0Z" fill="#c0526a"></path><path d="M0 172.8C-9.4 155.7 -18.9 138.7 -30.9 135.3C-42.9 131.9 -57.5 142.3 -68 141.3C-78.6 140.3 -85.2 128 -97.3 122C-109.4 115.9 -127 116.1 -135.1 107.7C-143.2 99.4 -141.6 82.5 -144.2 69.4C-146.7 56.4 -153.3 47.2 -158.7 36.2C-164.2 25.3 -168.5 12.6 -172.8 0L0 0Z" fill="#f6884d"></path><path d="M0 86.4C-4.7 77.9 -9.4 69.3 -15.4 67.7C-21.4 66 -28.7 71.1 -34 70.6C-39.3 70.1 -42.6 64 -48.6 61C-54.7 58 -63.5 58 -67.6 53.9C-71.6 49.7 -70.8 41.2 -72.1 34.7C-73.3 28.2 -76.6 23.6 -79.4 18.1C-82.1 12.6 -84.2 6.3 -86.4 0L0 0Z" fill="#fbae3c"></path></g><g transform="translate(0, 540)"><path d="M0 -432C22.8 -385.1 45.6 -338.3 74.8 -327.6C103.9 -316.9 139.3 -342.4 162.3 -337C185.2 -331.6 195.8 -295.3 225.7 -283C255.6 -270.7 305 -282.4 337.8 -269.3C370.5 -256.3 386.7 -218.6 375.7 -180.9C364.7 -143.3 326.6 -105.8 331.5 -75.7C336.3 -45.5 384.2 -22.8 432 0L0 0Z" fill="#18223c"></path><path d="M0 -345.6C18.3 -308.1 36.5 -270.6 59.8 -262.1C83.1 -253.5 111.4 -273.9 129.8 -269.6C148.2 -265.3 156.6 -236.3 180.6 -226.4C204.5 -216.6 244 -225.9 270.2 -215.5C296.4 -205 309.3 -174.8 300.6 -144.7C291.8 -114.6 261.3 -84.6 265.2 -60.5C269.1 -36.4 307.3 -18.2 345.6 0L0 0Z" fill="#683a67"></path><path d="M0 -259.2C13.7 -231.1 27.4 -203 44.9 -196.5C62.3 -190.1 83.6 -205.4 97.4 -202.2C111.1 -198.9 117.5 -177.2 135.4 -169.8C153.4 -162.4 183 -169.4 202.7 -161.6C222.3 -153.8 232 -131.1 225.4 -108.6C218.8 -86 196 -63.5 198.9 -45.4C201.8 -27.3 230.5 -13.7 259.2 0L0 0Z" fill="#c0526a"></path><path d="M0 -172.8C9.1 -154.1 18.3 -135.3 29.9 -131C41.6 -126.8 55.7 -136.9 64.9 -134.8C74.1 -132.6 78.3 -118.1 90.3 -113.2C102.3 -108.3 122 -113 135.1 -107.7C148.2 -102.5 154.7 -87.4 150.3 -72.4C145.9 -57.3 130.6 -42.3 132.6 -30.3C134.5 -18.2 153.7 -9.1 172.8 0L0 0Z" fill="#f6884d"></path><path d="M0 -86.4C4.6 -77 9.1 -67.7 15 -65.5C20.8 -63.4 27.9 -68.5 32.5 -67.4C37 -66.3 39.2 -59.1 45.1 -56.6C51.1 -54.1 61 -56.5 67.6 -53.9C74.1 -51.3 77.3 -43.7 75.1 -36.2C72.9 -28.7 65.3 -21.2 66.3 -15.1C67.3 -9.1 76.8 -4.6 86.4 0L0 0Z" fill="#fbae3c"></path></g></svg>